<?xml version="1.0" encoding="UTF-8"?>
<!DOCTYPE svg PUBLIC "-//W3C//DTD SVG 1.1//EN" "http://www.w3.org/Graphics/SVG/1.1/DTD/svg11.dtd">
<!-- Creator: CorelDRAW X8 -->
<svg xmlns="http://www.w3.org/2000/svg" xml:space="preserve" width="2480px" height="2480px" version="1.1" style="shape-rendering:geometricPrecision; text-rendering:geometricPrecision; image-rendering:optimizeQuality; fill-rule:evenodd; clip-rule:evenodd"
viewBox="0 0 2480 2480"
 xmlns:xlink="http://www.w3.org/1999/xlink">
 <defs>
  <style type="text/css">
   <![CDATA[
    .fil0 {fill:#F8F8F8}
    .fil2 {fill:url(#id0)}
    .fil3 {fill:url(#id1)}
    .fil1 {fill:url(#id2)}
   ]]>
  </style>
  <linearGradient id="id0" gradientUnits="userSpaceOnUse" x1="1049.18" y1="1240.86" x2="1221.48" y2="1240.86">
   <stop offset="0" style="stop-opacity:1; stop-color:#191A1E"/>
   <stop offset="1" style="stop-opacity:1; stop-color:#464D57"/>
  </linearGradient>
  <linearGradient id="id1" gradientUnits="userSpaceOnUse" xlink:href="#id0" x1="1853.15" y1="1240.88" x2="2025.54" y2="1240.88">
  </linearGradient>
  <linearGradient id="id2" gradientUnits="userSpaceOnUse" xlink:href="#id0" x1="2235.18" y1="2388.85" x2="204.053" y2="120.876">
  </linearGradient>
 </defs>
 <g id="Слой_x0020_1">
  <metadata id="CorelCorpID_0Corel-Layer"/>
  <g id="__x0023_f8f8f8ff">
   <path class="fil0" d="M473 1113c39,-35 93,-60 145,-44 28,6 48,30 60,55 36,-50 104,-74 162,-52 34,14 52,52 51,87 1,83 1,166 0,250 -29,0 -59,2 -89,-1 0,-70 0,-139 0,-209 1,-18 -4,-40 -22,-49 -27,-15 -61,-4 -83,16 -6,6 -15,12 -14,22 -1,73 0,147 -1,220 -29,2 -59,3 -89,0 0,-72 0,-143 0,-215 1,-19 -10,-40 -29,-47 -34,-11 -71,8 -90,37 -2,75 0,150 -1,225 -29,3 -59,3 -89,0 1,-112 1,-224 0,-335 30,-1 59,0 88,-1 1,14 1,27 1,41z"/>
   <g>
    <path class="fil0" d="M1086 1070c60,-14 128,-3 174,40 67,63 71,179 12,249 -67,79 -206,79 -273,0 -52,-62 -56,-159 -9,-224 22,-33 57,-56 96,-65l0 0zm29 75c-65,15 -82,103 -50,155 24,44 90,52 126,18 35,-33 39,-91 17,-133 -17,-33 -58,-48 -93,-40z"/>
   </g>
   <path class="fil0" d="M1468 1113c24,-19 49,-38 80,-45 38,-8 81,-6 112,18 25,20 35,53 35,84 1,79 0,158 0,238 -29,3 -59,2 -89,0 0,-68 1,-135 0,-203 0,-20 -5,-43 -24,-53 -36,-19 -84,-6 -110,25 -6,6 -4,15 -4,22 0,70 0,140 -1,210 -29,1 -58,1 -87,0 0,-112 -3,-224 -1,-336 30,-1 59,0 88,0 0,13 1,27 1,40z"/>
   <g>
    <path class="fil0" d="M1891 1070c61,-15 131,-2 176,44 67,65 67,183 4,250 -69,73 -202,72 -267,-4 -58,-67 -57,-177 3,-242 23,-24 52,-40 84,-48l0 0zm29 75c-69,15 -85,111 -46,162 28,40 92,42 125,8 32,-37 35,-95 9,-136 -19,-28 -55,-42 -88,-34z"/>
   </g>
  </g>
  <g id="__x0023_272a32ff">
   <path class="fil1" d="M535 2c125,-3 250,0 375,-1 330,0 660,0 990,0 114,1 230,23 326,85 101,63 180,161 218,273 41,115 36,239 36,359 0,346 0,692 0,1038 -1,87 5,175 -10,261 -17,115 -69,225 -153,306 -83,84 -196,134 -313,148 -88,14 -177,7 -266,9 -342,0 -683,0 -1025,0 -84,-1 -168,4 -251,-11 -111,-16 -217,-65 -296,-143 -84,-80 -138,-190 -155,-304 -16,-86 -10,-174 -11,-261 0,-374 0,-749 0,-1124 -1,-100 5,-204 43,-298 50,-129 153,-235 279,-289 67,-30 141,-42 213,-48m-62 1111c0,-14 0,-27 -1,-41 -29,1 -58,0 -88,1 1,111 1,223 0,335 30,3 60,3 89,0 1,-75 -1,-150 1,-225 19,-29 56,-48 90,-37 19,7 30,28 29,47 0,72 0,143 0,215 30,3 60,2 89,0 1,-73 0,-147 1,-220 -1,-10 8,-16 14,-22 22,-20 56,-31 83,-16 18,9 23,31 22,49 0,70 0,139 0,209 30,3 60,1 89,1 1,-84 1,-167 0,-250 1,-35 -17,-73 -51,-87 -58,-22 -126,2 -162,52 -12,-25 -32,-49 -60,-55 -52,-16 -106,9 -145,44m613 -43c-39,9 -74,32 -96,65 -47,65 -43,162 9,224 67,79 206,79 273,0 59,-70 55,-186 -12,-249 -46,-43 -114,-54 -174,-40m382 43c0,-13 -1,-27 -1,-40 -29,0 -58,-1 -88,0 -2,112 1,224 1,336 29,1 58,1 87,0 1,-70 1,-140 1,-210 0,-7 -2,-16 4,-22 26,-31 74,-44 110,-25 19,10 24,33 24,53 1,68 0,135 0,203 30,2 60,3 89,0 0,-80 1,-159 0,-238 0,-31 -10,-64 -35,-84 -31,-24 -74,-26 -112,-18 -31,7 -56,26 -80,45m423 -43c-32,8 -61,24 -84,48 -60,65 -61,175 -3,242 65,76 198,77 267,4 63,-67 63,-185 -4,-250 -45,-46 -115,-59 -176,-44z"/>
   <path class="fil2" d="M1115 1145c35,-8 76,7 93,40 22,42 18,100 -17,133 -36,34 -102,26 -126,-18 -32,-52 -15,-140 50,-155z"/>
   <path class="fil3" d="M1920 1145c33,-8 69,6 88,34 26,41 23,99 -9,136 -33,34 -97,32 -125,-8 -39,-51 -23,-147 46,-162z"/>
  </g>
 </g>
</svg>
